<svg id="Layer_1" version="1.1" viewBox="0 0 64 64" xml:space="preserve" xmlns="http://www.w3.org/2000/svg" enable-background="new 0 0 64 64"><path d="M9 42h3v5.833L19.333 42H41a2 2 0 0 0 2-2V14a2 2 0 0 0-2-2H9a2 2 0 0 0-2 2v26a2 2 0 0 0 2 2z" fill="#005eff" class="fill-d9dce1"></path><path d="M55 51h-3v5.833L44.667 51H23a2 2 0 0 1-2-2V23a2 2 0 0 1 2-2h32a2 2 0 0 1 2 2v26a2 2 0 0 1-2 2z" fill="#ffffff" class="fill-56aaff"></path><circle cx="39" cy="36" r="2" fill="#008cff" class="fill-ffffff"></circle><circle cx="47" cy="36" r="2" fill="#008cff" class="fill-ffffff"></circle><circle cx="31" cy="36" r="2" fill="#008cff" class="fill-ffffff"></circle></svg>