<svg id="Layer_1" version="1.1" viewBox="0 0 256 256" xml:space="preserve" xmlns="http://www.w3.org/2000/svg" enable-background="new 0 0 256 256"><path d="M45.071 234.298s1.214 11.447.381 16.331-6.04 6.268-7.916 4.834c-2.509-1.918-3.055-6.955-2.083-11.686s1.869-10.604 1.869-10.604l7.749 1.125zM19.446 188.027c-4.475.099-5.205 6.241-4.832 12.433.373 6.192.338 11.412 4.705 12.157 4.367.746 4.243-4.971 4.491-11.184s.593-13.515-4.364-13.406z" fill="#001333" class="fill-001333"></path><path d="M54.396 89.593s-4.699 12.688-6.422 17.857c-1.723 5.169-4.857 10.677-4.857 10.677l-17.526.995s-9.884-9.461-15.993-25.76H2.393s-.157 17.691 4.856 26.776 13.941 13.941 13.941 13.941-2.663 21.616-.47 23.026 27.881 3.289 29.918.94c2.036-2.35.313-26.941.313-26.941s6.853-5.725 9.43-19.059C62.958 98.711 62.51 91.54 62.51 91.54l-8.114-1.947z" fill="#0011fa" class="fill-0082fb"></path><path d="M40.334 103.065s5.755-3.867 5.755-7.194-3.417-.856-3.417-.856 2.068-5.529.54-6.878c-1.529-1.349-3.957-.45-6.295 1.079s-16.346 1.633-14.738 10.169 3.274 9.055 3.274 9.055 1.048 5.5 2.488 5.5 3.797-2.619 3.797-2.619l8.596-8.256z" fill="#000000" class="fill-763900"></path><path d="M38.755 113.228v7.041l-3.062 3.674-6.276-4.439-.688-9.108z" fill="#ffa36c" class="fill-ffa36c"></path><path d="M38.066 127.923h-5.893l-.46-4.975 3.751-2.143 4.133 1.99z" fill="#24c1ff" class="fill-ff3f25"></path><path d="M38.066 127.923s-.466 19.066-3.749 24.855c0 0-5.592 3.953-9.873 4.8v-9.318s5.884-7.098 7.728-20.337h5.894z" fill="#24c1ff" class="fill-ff3f25"></path><path d="M33.987 95.043c5.776-.411 8.043 3.7 7.721 10.938-.322 7.239-2.895 9.973-6.113 9.812-3.217-.161-6.595-2.735-7.721-5.952 0 0-3.098 1.945-4.087-1.922-.989-3.867.989-4.406 2.608-4.406 0 .001-2.262-7.768 7.592-8.47z" fill="#ffa36c" class="fill-ffa36c"></path><path d="m35.464 120.805 4.209-5.357 3.444 2.678-1.837 9.338zM28.729 115.448l-3.138 3.673 3.826 9.108 6.047-7.424z" fill="#b3e2fc" class="fill-b3e2fc"></path><path d="M55.002 77.866s.896-6.275 4.258-6.051c3.362.224 8.404 5.715 6.723 8.964s-4.385 6.442-4.385 6.442L56.01 85.71l-1.614-5.154.606-2.69zM11.428 81.548s.759-6.293-2.546-6.947c-3.305-.654-9.597 3.343-8.815 6.917s2.567 7.358 2.567 7.358l5.789-.013 2.894-4.561.111-2.754z" fill="#ffa36c" class="fill-ffa36c"></path><path d="M9.7 88.857s4.033-3.791 3.618-6.571c-.415-2.779-3.511-2.914-5.699-2.108S3.657 82.407 6 83.188l2.343.781s-5.435.05-5.708 4.907l7.065-.019z" fill="#ffa36c" class="fill-ffa36c"></path><path d="M49.454 158.602s3.104 6.086 3.929 19.556c.825 13.47-2.041 46.768-7.127 56.39l-8.934-1.375s-.295-33.71-.295-43.607v-17.869s-3.574 19.755-6.873 24.654-7.835 2.424-9.347-1.149c-1.512-3.574-1.649-9.209-1.375-18.556.275-9.347 2.794-19.068 2.794-19.068l27.228 1.024z" fill="#003bfc" class="fill-271b5f"></path><path d="M54.778 85.374s-2.913-4.706-1.793-7.283c1.121-2.577 4.146-1.905 6.051-.56 1.905 1.345 3.25 3.179.784 3.326l-2.465.147s5.236 1.455 4.243 6.218l-6.82-1.848z" fill="#ffa36c" class="fill-ffa36c"></path><path d="M41.738 97.04s-.325 2.068-5.091 2.608-8.003 0-8.003 0 .629 5.676-.809 5.76c-1.439.085-3.237-5.401-3.237-5.401s1.978-6.115 6.655-6.565 10.091.99 10.485 3.598z" fill="#000000" class="fill-763900"></path><path d="m62.539 87.477-7.761-2.103-.382 4.219 8.113 1.944zM2.393 88.96h7.206v4.401H2.393z" fill="#b3e2fc" class="fill-b3e2fc"></path><path d="M241.176 236.579H69.671v-114.31a6.821 6.821 0 0 1 6.821-6.821h157.863a6.821 6.821 0 0 1 6.821 6.821v114.31z" fill="#1814ff" class="fill-272687"></path><path transform="rotate(90 155.424 181.013)" d="M99.858 105.261h111.131v151.505H99.858z" fill="#ffffff" class="fill-ffffff"></path><path d="M256 236.579H54.847v12.6A6.821 6.821 0 0 0 61.668 256h187.511a6.821 6.821 0 0 0 6.821-6.821v-12.6z" fill="#0011fa" class="fill-0082fb"></path><path d="M196.894 236.579h-82.941v5.195a2.812 2.812 0 0 0 2.812 2.812h77.316a2.812 2.812 0 0 0 2.812-2.812v-5.195z" fill="#1814ff" class="fill-272687"></path><path d="M157.057 190.444h-3.268c-11.207 0-20.292-9.085-20.292-20.292V48.41h43.852v121.742c0 11.207-9.085 20.292-20.292 20.292z" fill="#24c1ff" class="fill-ff3f25"></path><path d="M148.856 3.516 105.49 68.614c-3.493 5.244.266 12.266 6.567 12.266h86.734c6.301 0 10.061-7.022 6.567-12.266L161.991 3.516c-3.123-4.688-10.011-4.688-13.135 0z" fill="#24c1ff" class="fill-ff3f25"></path><path d="M162.194 196.311v-7.787a2.427 2.427 0 0 0-2.427-2.427h-5.092a29.624 29.624 0 0 0-4.072-9.818l3.604-3.604a2.427 2.427 0 0 0 0-3.433l-5.507-5.507a2.427 2.427 0 0 0-3.433 0l-3.604 3.604a29.645 29.645 0 0 0-9.818-4.072v-5.092a2.427 2.427 0 0 0-2.427-2.427h-7.787a2.427 2.427 0 0 0-2.427 2.427v5.092a29.624 29.624 0 0 0-9.818 4.072l-3.604-3.604a2.427 2.427 0 0 0-3.433 0l-5.507 5.507a2.427 2.427 0 0 0 0 3.433l3.604 3.604a29.645 29.645 0 0 0-4.072 9.818h-5.092a2.427 2.427 0 0 0-2.427 2.427v7.787a2.427 2.427 0 0 0 2.427 2.427h5.092a29.624 29.624 0 0 0 4.072 9.818l-3.604 3.604a2.427 2.427 0 0 0 0 3.433l5.507 5.507a2.427 2.427 0 0 0 3.433 0l3.604-3.604a29.645 29.645 0 0 0 9.818 4.072v5.092a2.427 2.427 0 0 0 2.427 2.427h7.787a2.427 2.427 0 0 0 2.427-2.427v-5.092a29.624 29.624 0 0 0 9.818-4.072l3.604 3.604a2.427 2.427 0 0 0 3.433 0l5.507-5.507a2.427 2.427 0 0 0 0-3.433l-3.604-3.604a29.645 29.645 0 0 0 4.072-9.818h5.092a2.428 2.428 0 0 0 2.427-2.427zm-36.669 11.154c-8.311 0-15.048-6.737-15.048-15.048s6.737-15.048 15.048-15.048 15.048 6.737 15.048 15.048c-.001 8.311-6.738 15.048-15.048 15.048z" fill="#2d9bee" class="fill-2d9bee"></path><path d="m221.92 163.615-1.754-6.604a2.13 2.13 0 0 0-2.605-1.512l-4.318 1.147a26.02 26.02 0 0 0-5.665-7.409l2.244-3.868a2.13 2.13 0 0 0-.773-2.911l-5.91-3.429a2.13 2.13 0 0 0-2.911.773l-2.244 3.868a26.003 26.003 0 0 0-9.244-1.241l-1.147-4.318a2.13 2.13 0 0 0-2.605-1.512l-6.604 1.754a2.13 2.13 0 0 0-1.512 2.605l1.147 4.318a26.02 26.02 0 0 0-7.409 5.665l-3.868-2.244a2.13 2.13 0 0 0-2.911.773l-3.429 5.91a2.13 2.13 0 0 0 .773 2.911l3.868 2.244a26 26 0 0 0-1.241 9.243l-4.318 1.147a2.13 2.13 0 0 0-1.512 2.605l1.754 6.604a2.13 2.13 0 0 0 2.605 1.512l4.318-1.147a26.02 26.02 0 0 0 5.665 7.409l-2.244 3.868a2.13 2.13 0 0 0 .773 2.911l5.91 3.429a2.13 2.13 0 0 0 2.911-.773l2.244-3.868a26 26 0 0 0 9.243 1.241l1.147 4.318a2.13 2.13 0 0 0 2.605 1.512l6.604-1.754a2.13 2.13 0 0 0 1.512-2.605l-1.147-4.318a26.02 26.02 0 0 0 7.409-5.665l3.868 2.244a2.13 2.13 0 0 0 2.911-.773l3.429-5.91a2.13 2.13 0 0 0-.773-2.911l-3.868-2.244a26 26 0 0 0 1.241-9.243l4.318-1.147a2.13 2.13 0 0 0 1.513-2.605zm-28.584 17.72c-7.048 1.872-14.279-2.323-16.151-9.371-1.872-7.048 2.323-14.279 9.371-16.151 7.048-1.872 14.279 2.323 16.151 9.371 1.872 7.047-2.324 14.279-9.371 16.151z" fill="#032dff" class="fill-182c8c"></path></svg>